<svg t="1744982711858" class="icon" viewBox="0 0 1024 1024" version="1.1" xmlns="http://www.w3.org/2000/svg"
    p-id="1354">
    <path
        d="M926 755.9l-76.4-76.3c-2.6-2.6-2.6-6.9 0-9.6l73.2-72.7c2.7-2.6 2.7-6.9 0-9.6l-71-70.7c-2.7-2.6-2.7-6.9 0-9.6l71.1-70.7c2.7-2.6 2.7-6.9 0-9.6l-77.3-76.9c-2.7-2.6-2.7-6.9 0-9.6l75.1-75c2.7-2.7 2.6-6.9 0-9.6l-159-156.5c-2.6-2.6-6.9-2.6-9.5 0l-74.5 72.1c-2.7 2.6-6.9 2.6-9.6-0.1l-67.4-67c-2.7-2.7-7-2.6-9.7 0l-73.6 74.2c-2.7 2.7-7 2.7-9.7 0l-74.6-74.2c-2.7-2.6-7-2.6-9.6 0L352 175.8c-2.7 2.7-7 2.6-9.7 0l-72.6-73.2c-2.6-2.7-7-2.7-9.6-0.1L99.5 260.7c-2.7 2.6-2.7 6.9-0.1 9.6l73.4 74.1c2.6 2.6 2.6 6.9 0 9.5l-71.2 70.7c-2.6 2.6-2.7 6.9 0 9.5l71.2 71.9c2.6 2.6 2.6 6.9 0 9.5l-71.3 70.9c-2.7 2.6-2.7 6.9 0 9.6l69.8 69.4c2.7 2.6 2.7 6.9 0 9.6l-70.1 69.7c-2.7 2.7-2.7 7 0 9.6l160.4 156.9c2.6 2.6 6.9 2.6 9.5 0l65-63.3c2.6-2.6 6.9-2.6 9.5 0l78.1 75.5c2.7 2.6 6.9 2.5 9.6-0.1l74.6-74.1c2.7-2.6 7-2.6 9.6 0l74.8 74.4c2.7 2.6 7 2.6 9.6 0l72.3-71.9c2.7-2.7 7-2.6 9.7 0.1l72 73.2c2.7 2.7 7 2.7 9.7 0L926 765.4c2.7-2.6 2.7-6.9 0-9.5z m-586.4 2.8l-72 70.4c-2.7 2.6-6.9 2.6-9.6 0l-73.9-73c-2.7-2.6-2.7-6.9 0-9.6l72-71.6c2.7-2.6 2.7-6.9 0-9.6L186.3 596c-2.7-2.6-2.7-6.9 0-9.6l71-70.5c2.6-2.6 2.7-6.9 0-9.5l-71.2-71.9c-2.6-2.6-2.6-6.9 0-9.5l71.2-70.7c2.6-2.6 2.7-6.9 0-9.5l-71.5-72.2c-2.6-2.6-2.6-6.8 0-9.5l70.9-71.9c2.6-2.7 7-2.7 9.7-0.1l73.7 72.9c2.7 2.6 7 2.6 9.6 0l77.1-76.7c2.7-2.6 7-2.6 9.6 0l71 70.5c2.7 2.6 7 2.6 9.6 0l71.2-70.4c2.7-2.6 7-2.6 9.6 0l70.2 69.8c2.7 2.6 6.9 2.6 9.6 0l73.5-72.7c2.7-2.6 7-2.6 9.7 0.1l73.4 74.5c2.6 2.6 2.6 6.8 0 9.5L762 342c-2.6 2.7-2.6 6.9 0.1 9.5l76.1 75.7c2.7 2.6 2.7 6.9 0 9.6l-71.1 70.7c-2.7 2.6-2.7 6.9 0 9.6l71.1 70.7c2.7 2.6 2.7 6.9 0 9.6L761.9 673c-2.7 2.6-2.7 6.9 0 9.6l73.2 73.3c2.6 2.6 2.6 6.9 0 9.5l-71.9 72.9c-2.6 2.7-6.9 2.7-9.6 0.1l-71.1-69.5c-2.7-2.6-6.9-2.6-9.6 0l-70.8 70.4c-2.7 2.6-7 2.6-9.6 0l-74.8-74.4c-2.7-2.6-7-2.6-9.6 0L437 835.6c-2.6 2.6-6.9 2.6-9.6 0l-78.1-76.9c-2.8-2.6-7-2.6-9.7 0z"
        p-id="1355" fill="#000000" data-spm-anchor-id="a313x.manage_type_mylikes.0.i3.737e3a819HfHPz" class=""></path>
    <path
        d="M711.7 431.8l-28.9 28.7c-2.7 2.7-7 2.6-9.6 0L554.9 341.7c-2.6-2.6-2.6-6.9 0-9.5l28.9-28.7c2.7-2.7 7-2.6 9.6 0l118.3 118.8c2.6 2.6 2.6 6.9 0 9.5z m-16.2 151.8l-28.9 28.7c-2.7 2.6-7 2.6-9.6 0l-257.3-257c-2.6-2.6-2.6-6.9 0-9.6l28.8-28.7c2.7-2.6 7-2.6 9.6 0l257.4 257c2.7 2.7 2.7 7 0 9.6z m-86.9 85.2l-28.9 28.7c-2.7 2.6-7 2.6-9.6 0l-257.3-257c-2.6-2.6-2.6-6.9 0-9.6l28.9-28.7c2.7-2.6 7-2.6 9.6 0l257.3 257c2.7 2.7 2.7 6.9 0 9.6zM472 682.4l-28.9 28.7c-2.7 2.7-7 2.6-9.6 0L307.8 584.9c-2.6-2.6-2.6-6.9 0-9.5l28.9-28.7c2.7-2.7 7-2.6 9.6 0l125.8 126.2c2.6 2.6 2.6 6.8-0.1 9.5z m4.8-4.8"
        p-id="1356" fill="#000000" data-spm-anchor-id="a313x.manage_type_mylikes.0.i4.737e3a819HfHPz" class="selected">
    </path>
</svg>