<?xml version="1.0" encoding="utf-8"?>
<!-- Generator: Adobe Illustrator 25.4.1, SVG Export Plug-In . SVG Version: 6.00 Build 0)  -->
<svg version="1.1" id="图层_1" xmlns="http://www.w3.org/2000/svg" xmlns:xlink="http://www.w3.org/1999/xlink" x="0px"
    y="0px" viewBox="0 0 841.89 595.28" style="enable-background:new 0 0 841.89 595.28;" xml:space="preserve">
    <style type="text/css">
        .st0 {
            fill-rule: evenodd;
            clip-rule: evenodd;
        }
    </style>
    <g>
        <g>
            <path class="st0" d="M182.37,262.18c14.21,0,25.48,6.93,32.83,17.54c8.18,11.82,7.39,20.68,7.24,33.81l-61.99,0
			c1.55,12.04,11.01,18.84,21.58,18.86c10.71,0.01,18.08-6.29,23.36-14.8l16.1,9.76c-8.74,15.8-22.47,24.27-39.12,24.27
			c-24.42,0-44.22-20.02-44.22-44.71C138.16,282.2,157.95,262.18,182.37,262.18L182.37,262.18z M180.94,281.24
			c-10.82,0-19.53,5.69-19.53,14.46h39.19C200.6,286.93,191.76,281.24,180.94,281.24z" />
        </g>
        <g>
            <path class="st0" d="M496.51,262.18c14.21,0,25.48,6.93,32.83,17.54c8.18,11.82,7.39,20.68,7.24,33.81l-61.99,0
			c1.55,12.04,11.01,18.84,21.58,18.86c10.71,0.01,18.08-6.29,23.36-14.8l16.1,9.76c-8.74,15.8-22.47,24.27-39.12,24.27
			c-24.42,0-44.22-20.02-44.22-44.71C452.29,282.2,472.09,262.18,496.51,262.18L496.51,262.18z M495.07,281.24
			c-10.82,0-19.53,5.69-19.53,14.46h39.19C514.73,286.93,505.9,281.24,495.07,281.24z" />
        </g>
        <rect x="239.61" y="295.33" class="st0" width="45.24" height="23.27" />
        <rect x="304.58" y="261.83" class="st0" width="22.46" height="87.64" />
        <path class="st0" d="M315.81,256.44c7.67,0,13.92-5.97,13.92-13.29c0-7.32-6.25-13.29-13.92-13.29s-13.92,5.97-13.92,13.29
		C301.89,250.47,308.14,256.44,315.81,256.44z" />
        <path class="st0" d="M752.08,348.96l0.14-84.83h17.25v8.45c7.33-6.64,17.83-10.66,29.57-10.18c9.06,0.37,19.69,3.44,24.96,9.97
		c2.42,2.99,4.12,6.57,5.09,10.69c0.59,2.69,0.92,7.39,0.9,14.09l-0.14,51.81h-19.49l0.14-46.32c0.05-14.77-4.97-23.01-20.07-22.1
		c-7.46,0.64-18.93,3.97-18.99,22.04l-0.14,46.38H752.08z" />
        <path class="st0" d="M341.77,348.28V231.89c31.05,0,66.04-6.07,88.9,17.55c19.99,20.65,18.73,59.29-0.5,80.07
		C406.97,354.58,373.9,348.28,341.77,348.28L341.77,348.28z M364.25,254.16v71.04c19.31,0,36.18,3.33,49.69-11.48
		c11.4-12.5,11.47-35.62-0.15-48.09C400.01,250.85,383.73,254.16,364.25,254.16z" />
        <polygon class="st0"
            points="75.96,233.6 84.72,233.6 106.95,314.05 122.11,233.95 142.08,233.85 119.9,348.34 99.01,348.34 
		76.28,274.39 75.96,275.43 75.63,274.39 52.9,348.34 32.02,348.34 9.83,233.85 29.81,233.95 44.97,314.05 67.2,233.6 	" />
        <path class="st0" d="M727.96,344.79c12.36,6.25,20.48,16.81,20.48,28.79c0,19.19-20.85,34.74-46.56,34.74
		c-25.72,0-45.98-14.75-45.98-33.94c0-10.48,6.22-20.47,16.05-26.84l0,0c0,0-9.77-10.52,0.57-25.3l0,0
		c-6.62-6.57-10.59-12.48-10.72-26.11c0-16.94,12.02-30.73,27.17-35.35c10.91-3.33,23.51-1.58,34.1,5.7l10.4-10.18l12.74,12.28
		l-11.4,10.89c2.7,5,4.22,10.66,4.22,16.67c0,12.99-7.04,25.02-17.78,31.49c-5.22,3.15-11.23,5.2-17.82,5.48
		c-5.54,0.23-10.94-0.96-13.46-0.17c-3.17,0.99-1.1,4.87,2.15,5.84c4.33,1.29,11.7,0.45,17.42,0.67
		C714.76,339.63,720.77,341.16,727.96,344.79L727.96,344.79z M700.57,277.81c-10.64,0-19.56,8.2-19.56,18.32
		c0,10.12,8.92,18.32,19.56,18.32c10.64,0,19.27-8.2,19.27-18.32C719.84,286.01,711.21,277.81,700.57,277.81L700.57,277.81z
		 M701.88,355.99c-13.02,0-22.99,8.09-22.99,17.8c0,9.72,9.97,17.38,22.99,17.38c13.02,0,23.58-7.88,23.58-17.59
		C725.45,363.86,714.9,355.99,701.88,355.99z" />
        <path class="st0" d="M600.72,292.58l18.15-8.41c0,0-3.33-22.08-36.82-22.2c-13.26-0.05-21.9,3.74-27.14,8.18
		c-7.72,6.54-11.5,21.35-6.86,29.77c2.24,4.08,6.88,8.46,12.88,10.63c5.33,1.93,11.46,3.09,17.28,4.11
		c11.83,2.08,20.69,3,20.19,9.83c-0.81,11.06-28.5,14.67-37.86-4.32l-17.68,8.41c0,0,6.85,23.34,39.02,23.34
		c14.4,0,25.39-4.76,30.51-10.3c7.88-8.53,9.69-28.38-0.8-36.33c-14.5-11-45.18-4.82-44.52-16.22
		C568.06,279.59,593.13,277.61,600.72,292.58z" />
        <rect x="628.34" y="261.83" class="st0" width="22.46" height="87.64" />
        <path class="st0" d="M639.58,256.44c7.67,0,13.92-5.97,13.92-13.29c0-7.32-6.25-13.29-13.92-13.29c-7.67,0-13.92,5.97-13.92,13.29
		C625.65,250.47,631.91,256.44,639.58,256.44z" />
        <g>
            <polygon class="st0" points="125.83,391.03 125.79,391.03 116.18,365.74 111.59,365.74 111.59,395.73 114.69,395.73 
			114.69,370.28 114.85,370.28 124.94,395.73 125.67,395.73 125.94,395.73 126.67,395.73 136.76,370.28 136.92,370.28 
			136.92,395.73 140.03,395.73 140.03,365.74 135.44,365.74 		" />
            <path class="st0" d="M159.5,379.31l-0.12,0l0-3.44h-2.89l0.21,19.9h2.98v-10.15c0-5.17,2.25-8,7.44-7.33l0.41-2.82
			C164.29,374.85,160.27,376.55,159.5,379.31z" />
            <path class="st0" d="M253.31,378.96c-2.88-4.29-8.49-4.36-11.44-2.2c-2.56,1.87-3.08,5.74-0.66,7.96
			c1.43,1.32,3.75,1.71,5.53,2.25c2.04,0.61,4.05,1.35,4.05,3.51c0,2.18-1.98,3.21-4.25,3.21c-2.13,0-4.27-1.47-5.43-3.07
			l-2.16,1.71c1.53,1.95,3.44,3.93,7.55,3.96c3.62,0.03,6.6-1.9,7.13-4.93c0.72-4.17-2.19-6.02-5.57-6.92
			c-2.64-0.7-5.52-1.26-5.52-3.33c0-4,6.28-4.24,8.63-0.55L253.31,378.96z" />
            <path class="st0" d="M58.29,387.39c-0.12-5.71-3.83-6.95-6.6-7.38v-0.09c2.71-0.77,5.32-2.77,5.32-6.81
			c0-5.79-5.43-7.36-9.63-7.36h-8.51v29.99h9.63C52.76,395.75,58.42,393.65,58.29,387.39L58.29,387.39z M53.83,373.83
			c0,3.87-3.63,5.12-6.71,5.12h-5.01v-10.54h4.9C50.31,368.41,53.83,369.83,53.83,373.83L53.83,373.83z M55.16,387.51
			c-0.14,4.08-3.63,5.59-7.52,5.59h-5.54v-11.62h5.54C50.79,381.48,55.34,382.31,55.16,387.51z" />
            <path class="st0"
                d="M88.33,375.8H85.2l-5.89,16.81H79.2l-6.41-16.81H69.5l8.19,19.75c-0.87,2.73-1.7,5.77-3.14,6.9
			c-0.87,0.68-2.22,1.01-4.07,0.5l-0.22,2.55c0.66,0.16,1.75,0.34,2.79,0.33c3.47-0.03,4.75-2.11,6.03-5.51L88.33,375.8z" />
            <path class="st0"
                d="M330.52,380.8c0-9.91-7.52-15.1-15.48-15.1h-9.25v30.11h9.19C322.79,395.81,330.52,390.67,330.52,380.8
			L330.52,380.8z M327.44,380.8c0,8.15-6.05,12.08-12.52,12.08h-5.91v-24.25h5.91C321.39,368.63,327.44,372.52,327.44,380.8z" />
            <path class="st0" d="M360.06,390.42c-1.49,2.01-3.57,3.17-6.26,3.17c-3.42,0-6.32-3.37-6.56-6.83h15.61v-1.07
			c0-6.61-3.62-10.46-8.93-10.46c-5.55,0-9.65,4.31-9.65,10.5c0,5.8,3.62,10.5,9.53,10.5c3.5,0,6.15-1.11,8.36-4.14L360.06,390.42
			L360.06,390.42z M347.19,384.2c0,0,0.74-6.08,6.46-6.22c6.16,0.11,6.22,6.22,6.22,6.22H347.19z" />
            <path class="st0"
                d="M595.46,395.75h-3.01v-2.86c-2.3,2.5-4.67,3.23-7.16,3.23c-6.04,0-9.69-4.41-9.69-10.52
			c0-5.87,4.02-10.13,9.69-10.13c2.51,0,5.58,1.3,7.16,3.41v-14.12h3.01V395.75L595.46,395.75z M585.6,377.94
			c-3.99,0-7.23,3.53-7.23,7.89c0,4.36,3.24,7.89,7.23,7.89c3.99,0,7.23-3.53,7.23-7.89C592.83,381.47,589.59,377.94,585.6,377.94z" />
            <rect x="224.94" y="375.8" class="st0" width="2.79" height="19.91" />
            <ellipse class="st0" cx="226.33" cy="368.33" rx="1.98" ry="2.06" />
            <path class="st0" d="M278.59,378.96c-2.88-4.29-8.49-4.36-11.44-2.2c-2.56,1.87-3.08,5.74-0.66,7.96
			c1.43,1.32,3.75,1.71,5.53,2.25c2.04,0.61,4.05,1.35,4.05,3.51c0,2.18-1.98,3.21-4.25,3.21c-2.13,0-4.27-1.47-5.43-3.07
			l-2.16,1.71c1.53,1.95,3.44,3.93,7.55,3.96c3.62,0.03,6.6-1.9,7.13-4.93c0.72-4.17-2.19-6.02-5.57-6.92
			c-2.64-0.7-5.52-1.26-5.52-3.33c0-4,6.28-4.24,8.63-0.55L278.59,378.96z" />
            <path class="st0" d="M389.16,378.96c-2.88-4.29-8.49-4.36-11.44-2.2c-2.56,1.87-3.08,5.74-0.66,7.96
			c1.43,1.32,3.75,1.71,5.53,2.25c2.04,0.61,4.05,1.35,4.05,3.51c0,2.18-1.98,3.21-4.25,3.21c-2.13,0-4.27-1.47-5.43-3.07
			l-2.16,1.71c1.53,1.95,3.44,3.93,7.55,3.96c3.62,0.03,6.6-1.9,7.13-4.93c0.72-4.17-2.19-6.02-5.57-6.92
			c-2.64-0.7-5.52-1.26-5.52-3.33c0-4,6.28-4.24,8.63-0.55L389.16,378.96z" />
            <rect x="403.09" y="375.8" class="st0" width="2.79" height="19.91" />
            <ellipse class="st0" cx="404.48" cy="368.33" rx="1.98" ry="2.06" />
            <path class="st0"
                d="M438.34,375.82h-3.22v3.41h-0.08c-1.28-2.65-4.21-3.93-6.81-3.93c-5.52,0-10,3.97-10,10.5
			c0,5.89,3.94,9.96,10,9.96c2.56,0,5.42-0.87,6.95-3.43h0.08v2.56c0,4.63-1.66,8.35-7.44,8.35c-2.97,0-5.16-1.48-7.18-3.74
			l-2.04,2.16c2.72,2.77,5.46,4.37,9.22,4.37c6.77,0,10.52-3.93,10.52-11.14V375.82L438.34,375.82z M421.42,385.81
			c0-4.18,2.77-7.71,6.81-7.71c4.09,0,7.3,3.31,7.3,7.62c0,3.84-2.89,7.4-7.3,7.4C424.47,393.12,421.42,389.86,421.42,385.81z" />
            <path class="st0" d="M451.65,395.72h2.93v-9.71c0-4.56,1.94-7.95,6.08-7.95c2.99,0,4.52,2.37,4.52,5.69v11.97h3.06v-12.31
			c0-4.81-2.25-7.99-7.3-7.99c-3.16,0-5.53,1.69-6.4,3.65h-0.08c0-1.11-0.08-2.21-0.08-3.28h-2.9c0,1.32,0.16,2.9,0.16,4.73V395.72z
			" />
            <path class="st0" d="M513.63,387.92c-0.18-10.71-14.9-6.96-14.9-14.54c0-3.79,3.26-5.58,6.33-5.58c2.36,0,4.16,1.31,5.64,2.87
			l2.42-1.99c-1.91-2.14-4.4-3.73-7.85-3.73c-5.04,0-9.66,3.03-9.66,8.42c0,10.31,14.49,6.46,14.71,14.59
			c0.09,3.42-2.92,5.74-6.37,5.74c-2.63,0-4.77-1.69-6.47-3.68l-2.55,1.94c2.63,3.18,5.11,4.49,9,4.49
			C509.4,396.45,513.72,393.07,513.63,387.92z" />
            <path class="st0"
                d="M536.49,375.92h-5.25v-5.57h-2.91v5.57h-3.98v2.62h3.98l-0.14,10.77c-0.05,4.06,0.7,6.72,5.03,6.72
			c1.13,0,2.36-0.21,3.41-0.71l-0.12-2.83c-0.82,0.46-1.66,0.67-2.55,0.67c-2.69,0-2.73-2.15-2.73-4.67v-9.95h5.25V375.92z" />
            <path class="st0"
                d="M564.24,375.89h-2.89v9.66c0,4.53-1.92,8.05-6.02,8.05c-2.96,0-4.75-2.5-4.75-5.81v-11.91h-2.89v12.25
			c0,4.79,2.23,8.1,7.22,8.1c3.12,0,5.61-1.82,6.47-3.77h0.08c0,1.1,0.08,2.2,0.08,3.26h2.87c0-1.31-0.16-2.88-0.16-4.7V375.89z" />
            <rect x="611.01" y="375.8" class="st0" width="2.79" height="19.91" />
            <ellipse class="st0" cx="612.41" cy="368.33" rx="1.98" ry="2.06" />
            <path class="st0" d="M635.64,375.37c5.6,0,10.14,4.64,10.14,10.37c0,5.73-4.54,10.37-10.14,10.37c-5.6,0-10.14-4.64-10.14-10.37
			C625.5,380.02,630.04,375.37,635.64,375.37L635.64,375.37z M635.64,378.01c-3.89,0-7.05,3.46-7.05,7.73
			c0,4.27,3.16,7.73,7.05,7.73c3.89,0,7.05-3.46,7.05-7.73C642.69,381.47,639.53,378.01,635.64,378.01z" />
            <polygon class="st0" points="193.92,391.03 193.88,391.03 184.27,365.74 179.67,365.74 179.67,395.73 182.78,395.73 
			182.78,370.28 182.94,370.28 193.03,395.73 193.76,395.73 194.03,395.73 194.76,395.73 204.85,370.28 205.01,370.28 
			205.01,395.73 208.12,395.73 208.12,365.74 203.53,365.74 		" />
        </g>
    </g>
</svg>