<?xml version="1.0" encoding="UTF-8"?>
<!DOCTYPE svg PUBLIC "-//W3C//DTD SVG 1.1//EN" "http://www.w3.org/Graphics/SVG/1.1/DTD/svg11.dtd">
<!-- Creator: CorelDRAW 2019 (64-Bit) -->
<svg xmlns="http://www.w3.org/2000/svg" xml:space="preserve" width="297mm" height="210mm" version="1.1"
    style="shape-rendering:geometricPrecision; text-rendering:geometricPrecision; image-rendering:optimizeQuality; fill-rule:evenodd; clip-rule:evenodd"
    viewBox="0 0 29700 21000" xmlns:xlink="http://www.w3.org/1999/xlink"
    xmlns:xodm="http://www.corel.com/coreldraw/odm/2003">
    <defs>
        <style type="text/css">
            <![CDATA[
            .fil0 {
                fill: none
            }

            .fil1 {
                fill: black
            }

            .fil2 {
                fill: black;
                fill-rule: nonzero
            }

            .fil3 {
                fill: white;
                fill-rule: nonzero
            }
            ]]>
        </style>
    </defs>
    <g id="图层_x0020_1">
        <metadata id="CorelCorpID_0Corel-Layer" />
        <rect class="fil0" x="-0.53" y="7.13" width="29700" height="21000" />
        <rect class="fil1" x="8488.99" y="9553.87" width="1596.04" height="820.9" />
        <rect class="fil1" x="10780.84" y="8372.12" width="792.48" height="3091.88" />
        <ellipse class="fil1" cx="11177.09" cy="7712.99" rx="491.13" ry="468.81" />
        <path class="fil2"
            d="M26567.85 11445.83l5 -2992.48 608.44 0 0 298.2c258.58,-234.22 629.14,-376.03 1043.04,-359.09 319.66,13.09 694.59,121.45 880.5,351.58 85.3,105.61 145.48,231.6 179.39,376.96 20.79,94.96 32.35,260.7 31.71,497.09l-5 1827.74 -687.59 0 5.01 -1634.03c1.59,-520.96 -175.41,-811.72 -708.16,-779.71 -263.08,22.6 -667.88,140.09 -669.82,777.55l-5 1636.19 -677.52 0z" />
        <path class="fil2"
            d="M12092.83 11421.88l0 -4105.86c1095.44,0 2329.68,-214.12 3136.3,619.22 705.29,728.63 660.92,2091.73 -17.63,2824.72 -818.47,884.17 -1985,661.92 -3118.67,661.92zm792.97 -3320.28l0 2506.21c681.35,0 1276.31,117.32 1752.94,-405.12 402.33,-441 404.75,-1256.74 -5.3,-1696.65 -485.97,-521.34 -1060.22,-404.44 -1747.64,-404.44z" />
        <polygon class="fil2"
            points="2715.66,7376.13 3024.74,7376.13 3808.94,10214.45 4343.64,7388.48 5048.35,7384.94 4265.87,11424.04 3529.04,11424.04 2727.14,8815.04 2715.66,8851.91 2704.19,8815.04 1902.29,11424.04 1165.46,11424.04 382.98,7384.94 1087.69,7388.48 1622.39,10214.45 2406.59,7376.13 " />
        <path class="fil1"
            d="M25716.87 11298.81c435.97,220.35 722.51,592.95 722.51,1015.47 0,676.92 -735.46,1225.66 -1642.67,1225.66 -907.21,0 -1621.93,-520.36 -1621.93,-1197.28 0,-369.73 219.42,-722.1 566.37,-946.83l-0.01 -0.01c0,0 -344.63,-371.16 20.24,-892.7l0.02 -0.03c-233.53,-231.74 -373.58,-440.17 -378.18,-921.2 0,-597.49 424.17,-1084.12 958.51,-1247.16 384.99,-117.47 829.41,-55.89 1203.11,201.01l366.97 -359.23 449.27 433.12 -402.23 384.31c95.12,176.31 148.77,376.17 148.77,587.95 0,458.36 -248.29,882.49 -627.2,1110.94 -184.26,111.09 -396.17,183.45 -628.5,193.21 -195.61,8.22 -385.89,-33.79 -474.91,-5.9 -111.9,35.04 -38.65,171.97 75.8,205.94 152.75,45.34 412.61,16 614.63,23.7 183.64,6.98 395.76,60.81 649.43,189.03zm-966.22 -2363.11c375.36,0 679.64,289.3 679.64,646.19 0,356.88 -304.28,646.18 -679.64,646.18 -375.36,0 -690.1,-289.3 -690.1,-646.18 0,-356.89 314.74,-646.19 690.1,-646.19zm46.06 2758.01c459.33,0 831.71,277.83 831.71,620.57 0,342.74 -372.38,620.57 -831.71,620.57 -459.33,0 -810.97,-270.35 -810.97,-613.09 0,-342.74 351.64,-628.05 810.97,-628.05z" />
        <g id="_2582716346160">
            <path class="fil2"
                d="M6472.13 8385.98c501.17,0 898.98,244.36 1158.06,618.69 288.66,417.12 260.84,729.41 255.58,1192.76l-2186.77 -0.1c54.83,424.63 388.34,664.72 761.23,665.19 377.85,0.48 637.67,-222.06 824.15,-522.15l567.84 344.14c-308.24,557.54 -792.78,856.36 -1380.09,856.36 -861.51,0 -1559.9,-706.25 -1559.9,-1577.44 0,-871.2 698.39,-1577.45 1559.9,-1577.45zm-50.52 672.47c381.78,0 693.46,200.67 693.46,509.94l-1382.59 0c0,-309.27 307.34,-509.94 689.13,-509.94z" />
            <path class="fil3"
                d="M6421.61 9058.45c381.78,0 693.46,200.67 693.46,509.94l-1382.59 0c0,-309.27 307.34,-509.94 689.13,-509.94z" />
        </g>
        <g id="_2583062100448">
            <path class="fil2"
                d="M17554.03 8385.98c501.17,0 898.98,244.36 1158.06,618.69 288.66,417.12 260.84,729.41 255.58,1192.76l-2186.77 -0.1c54.83,424.63 388.34,664.72 761.23,665.19 377.85,0.48 637.67,-222.06 824.15,-522.15l567.84 344.14c-308.24,557.54 -792.78,856.36 -1380.09,856.36 -861.51,0 -1559.9,-706.25 -1559.9,-1577.44 0,-871.2 698.39,-1577.45 1559.9,-1577.45zm-50.52 672.47c381.78,0 693.46,200.67 693.46,509.94l-1382.59 0c0,-309.27 307.34,-509.94 689.13,-509.94z" />
            <path class="fil3"
                d="M17503.51 9058.45c381.78,0 693.46,200.67 693.46,509.94l-1382.59 0c0,-309.27 307.34,-509.94 689.13,-509.94z" />
        </g>
        <path class="fil1"
            d="M21228.12 9457.03l640.32 -296.71c0,0 -117.54,-778.78 -1298.87,-783.17 -467.85,-1.74 -772.64,131.91 -957.41,288.45 -272.37,230.74 -405.57,753.03 -242.15,1050.26 79.09,143.85 242.7,298.35 454.36,374.85 187.96,67.95 404.34,108.88 609.43,144.99 417.47,73.48 730.03,105.95 712.31,346.89 -28.7,390.17 -1005.38,517.51 -1335.55,-152.42l-623.75 296.71c0,0 241.61,823.44 1376.53,823.44 507.94,0 895.7,-167.99 1076.24,-363.29 278.11,-300.86 341.81,-1001.07 -28.37,-1281.79 -511.61,-387.99 -1593.8,-170.1 -1570.72,-572.04 35.33,-334.57 919.95,-404.39 1187.63,123.83z" />
        <rect class="fil1" x="22202.61" y="8372.12" width="792.48" height="3091.88" />
        <ellipse class="fil1" cx="22598.86" cy="7712.99" rx="491.13" ry="468.81" />
        <g id="_2582719929888">
            <polygon class="fil2"
                points="4474.91,12929.91 4473.54,12929.91 4134.52,12037.68 3972.5,12037.68 3972.5,13095.87 4082.18,13095.87 4082.18,12197.99 4087.68,12197.99 4443.67,13095.87 4469.42,13095.87 4479.04,13095.87 4504.79,13095.87 4860.77,12197.99 4866.27,12197.99 4866.27,13095.87 4975.96,13095.87 4975.96,12037.68 4813.93,12037.68 " />
            <path class="fil2"
                d="M5662.83 12516.55l-4.22 0.11 -0.07 -121.53 -102.07 0 7.54 701.92 105.1 0 0 -358.03c0,-182.51 79.24,-282.21 262.47,-258.66l14.36 -99.53c-114.22,-21.48 -256.02,38.43 -283.11,135.72z" />
            <path class="fil1"
                d="M8972.25 12504.12c-101.66,-151.42 -299.54,-153.74 -403.73,-77.78 -90.45,65.94 -108.78,202.38 -23.38,280.94 50.55,46.52 132.18,60.35 194.95,79.27 71.83,21.66 142.8,47.46 142.8,123.76 0,77.07 -69.85,113.1 -150.08,113.1 -74.99,0 -150.53,-52.02 -191.55,-108.19l-76.12 60.28c53.9,68.81 121.51,138.77 266.19,139.86 127.82,0.96 232.93,-67.2 251.48,-173.98 25.53,-146.94 -77.24,-212.46 -196.35,-244.1 -93.14,-24.75 -194.65,-44.58 -194.65,-117.51 0,-141.01 221.62,-149.59 304.47,-19.24l75.97 -56.41z" />
            <path class="fil1"
                d="M2092.36 12801.7c-4.25,-201.42 -135.16,-245.23 -232.78,-260.24l0 -3c95.74,-27.03 187.72,-97.59 187.72,-240.21 0,-204.19 -191.47,-259.73 -339.77,-259.73l-300.34 0 0 1057.93 339.77 0c150.16,0 350.04,-74.11 345.4,-294.75zm-157.46 -478.43c0,136.62 -127.9,180.66 -236.75,180.66l-176.69 0 0 -371.83 172.93 0c116.39,0 240.51,50.04 240.51,191.17zm47.16 482.42c-4.99,144.04 -128.15,197.19 -265.13,197.19l-195.47 0 0 -409.88 195.47 0c110.74,0 271.49,29.29 265.13,212.69z" />
            <path class="fil1"
                d="M3151.96 12392.58l-110.31 0 -207.7 593.15 -3.86 0 -226.1 -593.15 -116.11 0 289.01 696.9c-30.72,96.44 -59.89,203.69 -110.69,243.36 -30.59,23.89 -78.15,35.75 -143.52,17.76l-7.78 89.93c23.2,5.76 61.88,11.85 98.6,11.52 122.42,-1.1 167.69,-74.43 212.82,-194.33l325.64 -865.14z" />
            <path class="fil1"
                d="M11696.05 12569.13c0,-349.51 -265.2,-532.52 -545.93,-532.52l-326.27 0 0 1062.04 324.15 0c275.41,0 548.05,-181.51 548.05,-529.52zm-108.67 -0.04c0,287.56 -213.41,426.22 -441.52,426.22l-208.52 0 0 -855.37 208.52 0c228.18,0 441.52,137.21 441.52,429.15z" />
            <path class="fil1"
                d="M12738.17 12908.62c-52.48,70.76 -125.92,111.9 -220.94,111.9 -120.56,0 -222.92,-118.89 -231.42,-240.84l550.54 0 0 -37.63c0,-233.36 -127.64,-368.86 -314.87,-368.86 -195.72,0 -340.39,152.06 -340.39,370.36 0,204.76 127.65,370.37 336.14,370.37 123.39,0 217.01,-39.15 295.01,-146.04l-74.07 -59.26zm-454.08 -219.41l447.38 0c0,0 -2.24,-215.53 -219.45,-219.38 -201.83,4.95 -227.93,219.38 -227.93,219.38z" />
            <path class="fil1"
                d="M21042.57 13096.46l-106.06 0 0 -101.04c-81.25,88.15 -164.66,113.86 -252.61,113.86 -213.24,0 -341.87,-155.73 -341.87,-371.06 0,-206.93 141.9,-357.34 341.87,-357.34 88.62,0 196.87,45.82 252.61,120.14l0 -498.11 106.06 0 0 1093.55zm-347.83 -628.36c140.81,0 254.97,124.63 254.97,278.37 0,153.73 -114.16,278.36 -254.97,278.36 -140.81,0 -254.97,-124.63 -254.97,-278.36 0,-153.74 114.16,-278.37 254.97,-278.37z" />
            <rect class="fil1" x="7971.3" y="12392.63" width="98.6" height="702.26" />
            <ellipse class="fil1" cx="8020.6" cy="12129.15" rx="69.96" ry="72.75" />
            <path class="fil1"
                d="M9864.15 12504.12c-101.66,-151.42 -299.54,-153.74 -403.73,-77.78 -90.44,65.94 -108.77,202.38 -23.38,280.94 50.55,46.52 132.18,60.35 194.95,79.27 71.83,21.66 142.8,47.46 142.8,123.76 0,77.07 -69.85,113.1 -150.07,113.1 -75,0 -150.54,-52.02 -191.55,-108.19l-76.13 60.28c53.9,68.81 121.51,138.77 266.2,139.86 127.81,0.96 232.92,-67.2 251.47,-173.98 25.53,-146.94 -77.24,-212.46 -196.35,-244.1 -93.14,-24.75 -194.65,-44.58 -194.65,-117.51 0,-141.01 221.62,-149.59 304.47,-19.24l75.97 -56.41z" />
            <path class="fil1"
                d="M13764.66 12504.12c-101.66,-151.42 -299.54,-153.74 -403.73,-77.78 -90.45,65.94 -108.78,202.38 -23.38,280.94 50.55,46.52 132.18,60.35 194.94,79.27 71.84,21.66 142.81,47.46 142.81,123.76 0,77.07 -69.85,113.1 -150.08,113.1 -74.99,0 -150.53,-52.02 -191.55,-108.19l-76.12 60.28c53.9,68.81 121.51,138.77 266.19,139.86 127.82,0.96 232.92,-67.2 251.47,-173.98 25.54,-146.94 -77.24,-212.46 -196.34,-244.1 -93.14,-24.75 -194.65,-44.58 -194.65,-117.51 0,-141.01 221.62,-149.59 304.47,-19.24l75.97 -56.41z" />
            <rect class="fil1" x="14255.98" y="12392.63" width="98.6" height="702.26" />
            <ellipse class="fil1" cx="14305.28" cy="12129.15" rx="69.96" ry="72.75" />
            <path class="fil1"
                d="M15499.67 12393.42l-113.57 0 0 120.45 -2.91 0c-45.14,-93.35 -148.53,-138.51 -240.26,-138.51 -194.69,0 -352.94,140.01 -352.94,370.36 0,207.77 138.91,351.33 352.94,351.33 90.29,0 191.19,-30.65 245.07,-120.98l2.91 0 0 90.33c0,163.36 -58.69,294.55 -262.53,294.55 -104.84,0 -182.02,-52.15 -253.37,-131.95l-71.92 76.36c96.11,97.86 192.78,153.99 325.29,153.99 238.8,0 371.29,-138.51 371.29,-392.95l0 -672.98zm-596.99 352.3c0,-147.54 97.56,-271.96 240.25,-271.96 144.15,0 257.6,116.89 257.6,268.95 0,135.5 -101.79,260.94 -257.6,260.94 -132.5,0 -240.25,-114.9 -240.25,-257.93z" />
            <path class="fil1"
                d="M15969.33 13095.46l103.21 0 0 -342.6c0,-160.78 68.44,-280.47 214.5,-280.47 105.59,0 159.58,83.65 159.58,200.83l0 422.24 107.99 0 0 -434.26c0,-169.8 -79.55,-282 -257.44,-282 -111.36,0 -195.24,59.61 -225.61,128.73l-2.9 0c0,-39.07 -2.89,-78.13 -2.89,-115.7l-102.23 0c0,46.58 5.79,102.18 5.79,166.79l0 536.44z" />
            <path class="fil1"
                d="M18155.85 12820.36c-6.39,-377.67 -525.57,-245.7 -525.57,-512.79 0,-133.66 114.84,-196.93 223.14,-196.93 83.16,0 146.78,46.08 198.99,101.28l85.32 -70.12c-67.36,-75.45 -155.21,-131.51 -277.06,-131.51 -177.93,0 -340.69,106.73 -340.69,297.04 0,363.71 511.05,227.72 518.86,514.71 3.27,120.52 -103.06,202.43 -224.89,202.43 -92.83,0 -168.33,-59.46 -228.29,-129.99l-90.04 68.43c92.77,112.12 180.3,158.4 317.61,158.4 193.4,0 345.68,-119.39 342.62,-300.95z" />
            <path class="fil1"
                d="M18962.28 12397.03l-185.07 0 0 -196.61 -102.5 0 0 196.61 -140.34 0 0 92.57 140.34 0 -4.81 379.92c-1.8,143.35 24.76,237.09 177.48,237.09 39.9,0 83.25,-7.39 120.4,-25.13l-4.14 -99.96c-28.89,16.26 -58.48,23.65 -90.12,23.65 -94.93,0 -96.31,-75.96 -96.31,-164.65l0 -350.92 185.07 0 0 -92.57z" />
            <path class="fil1"
                d="M19941.2 12396.05l-102.04 0 0 340.92c0,159.95 -67.8,284.14 -212.38,284.14 -104.5,0 -167.59,-88.26 -167.59,-204.89l0 -420.17 -102.04 0 0 432.13c0,168.96 78.73,285.59 254.81,285.59 110.22,0 198.06,-64.29 228.12,-133.08l2.85 0c0,38.88 2.87,77.76 2.87,115.14l101.13 0c0,-46.35 -5.73,-101.68 -5.73,-165.97l0 -533.81z" />
            <rect class="fil1" x="21591.1" y="12392.63" width="98.6" height="702.26" />
            <ellipse class="fil1" cx="21640.41" cy="12129.15" rx="69.96" ry="72.75" />
            <path class="fil1"
                d="M22459.94 12377.67c197.61,0 357.8,163.74 357.8,365.74 0,202 -160.19,365.74 -357.8,365.74 -197.6,0 -357.79,-163.74 -357.79,-365.74 0,-202 160.19,-365.74 357.79,-365.74zm0 93.15c137.32,0 248.64,122.04 248.64,272.59 0,150.55 -111.32,272.59 -248.64,272.59 -137.32,0 -248.64,-122.04 -248.64,-272.59 0,-150.55 111.32,-272.59 248.64,-272.59z" />
            <polygon class="fil2"
                points="6876.94,12929.91 6875.57,12929.91 6536.55,12037.68 6374.52,12037.68 6374.52,13095.87 6484.21,13095.87 6484.21,12197.99 6489.71,12197.99 6845.69,13095.87 6871.45,13095.87 6881.06,13095.87 6906.82,13095.87 7262.8,12197.99 7268.3,12197.99 7268.3,13095.87 7377.99,13095.87 7377.99,12037.68 7215.96,12037.68 " />
        </g>
    </g>
</svg>