<svg t="1746529587856" class="icon" viewBox="0 0 1024 1024" version="1.1" xmlns="http://www.w3.org/2000/svg"
    p-id="1504">
    <path
        d="M983.756328 312.729799A509.54189 509.54189 0 0 0 873.983638 150.016362a509.54189 509.54189 0 0 0-162.815837-109.72149A509.69549 509.69549 0 0 0 512 0.000512C442.880069 0.000512 375.859336 13.517298 312.729799 40.243672A509.54189 509.54189 0 0 0 150.016362 150.016362a509.54189 509.54189 0 0 0-109.72149 162.815837A509.69549 509.69549 0 0 0 0.000512 512c0 69.119931 13.516786 136.140664 40.24316 199.270201A509.54189 509.54189 0 0 0 150.016362 873.983638a509.54189 509.54189 0 0 0 162.815837 109.72149A507.647492 507.647492 0 0 0 512 1023.999488c69.119931 0 136.140664-13.516786 199.270201-40.24316a509.54189 509.54189 0 0 0 162.764637-109.72149 509.54189 509.54189 0 0 0 109.72149-162.815837A507.647492 507.647492 0 0 0 1023.999488 512a511.743488 511.743488 0 0 0-40.24316-199.270201zM217.805094 828.057284l254.054146-254.054146v142.079858l-171.929428 172.134228a434.380366 434.380366 0 0 1-82.124718-60.15994z m-93.593506-125.695874a40.550359 40.550359 0 0 0 7.014393-5.631995L471.85924 356.352156V460.800051L164.352348 768.204544a432.946767 432.946767 0 0 1-40.14076-65.843134z m-43.673557-168.499032l391.321209-391.321209v100.5567l-377.958022 377.804422a427.673172 427.673172 0 0 1-13.363187-87.039913z m391.321209 295.423705V942.07957a429.055571 429.055571 0 0 1-93.439906-19.199981l93.439906-93.593506zM408.576103 92.518819L92.518819 408.729703A433.407567 433.407567 0 0 1 408.576103 92.518819z m143.359857 849.560751v-206.694193a47.718352 47.718352 0 0 0 0-5.683195V81.92043c219.494181 20.22398 391.884408 205.414195 391.884408 430.07957 0 224.665375-172.390228 409.85559-391.884408 430.07957z"
        fill="#000000" p-id="1505"></path>
</svg>